<svg width="408" height="210" xmlns="http://www.w3.org/2000/svg" xmlns:xlink="http://www.w3.org/1999/xlink" overflow="hidden"><defs><clipPath id="clip0"><rect x="689" y="472" width="408" height="210"/></clipPath><clipPath id="clip1"><rect x="976" y="664" width="11" height="18"/></clipPath><clipPath id="clip2"><rect x="1087" y="664" width="10" height="13"/></clipPath><clipPath id="clip3"><rect x="1094" y="629" width="3" height="18"/></clipPath></defs><g clip-path="url(#clip0)" transform="translate(-689 -472)"><path d="M221.454 2.21894C222.338 1.16836 223.372-0.119383 224.913 0.0111425 226.865-0.0827724 228.577 1.69683 228.552 3.62129 228.541 6.09014 228.076 8.53192 227.99 10.996 227.883 14.0729 227.567 17.1371 227.228 20.198 224.469 21.7994 221.674 23.3354 218.96 25.01 217.928 25.6578 216.821 26.1672 215.684 26.5954 214.791 23.2256 213.83 19.8765 212.855 16.5258 212.586 15.3368 211.886 13.8691 212.871 12.8218 215.745 9.29756 218.61 5.76382 221.454 2.21894" fill="#A3D2A3" transform="matrix(1 0 0 1.00019 689 472.021)"/><path d="M153.312 73.0498C157.057 69.8057 160.785 66.5458 164.528 63.2938 168.778 64.4606 173.015 65.6783 177.244 66.9246 175.183 70.9184 173.044 74.8756 170.847 78.7961 165.5 79.2434 160.174 80.0297 154.808 80.173 152.795 80.3688 151.255 78.4284 151.238 76.5469 151.214 75.0841 152.277 73.946 153.312 73.0498" fill="#A3D2A3" transform="matrix(1 0 0 1.00019 689 472.021)"/><path d="M180.183 3.61652C180.031 1.70161 181.972 0.226032 183.761 0.243542 185.052 0.288111 186.169 1.09833 186.93 2.10114 189.963 5.85774 193.071 9.55384 196.128 13.2945 196.841 13.9424 196.303 14.8958 196.161 15.6742 195.069 19.3751 194.225 23.1444 193.076 26.823 191.645 26.355 190.423 25.4429 189.116 24.7251 186.572 23.3116 184.046 21.8599 181.52 20.4177 181.157 14.8115 180.227 9.24504 180.183 3.61652" fill="#2CB2A4" transform="matrix(1 0 0 1.00019 689 472.021)"/><path d="M232.13 66.5537C236.352 65.2549 240.602 64.0435 244.836 62.7844 248.268 65.8613 251.829 68.7918 255.324 71.7955 256.547 72.8588 258.157 73.9826 258.173 75.7845 258.438 78.0941 256.102 80.1396 253.842 79.6923 248.76 79.1988 243.671 78.8248 238.585 78.4045 236.43 74.4553 234.188 70.5555 232.13 66.5537" fill="#2CB2A4" transform="matrix(1 0 0 1.00019 689 472.021)"/><path d="M181.907 89.7157C185.717 87.5238 189.576 85.4131 193.361 83.1767 193.87 85.3033 194.16 87.4713 194.429 89.6393 194.738 92.2259 195.443 94.7696 195.497 97.3849 195.602 98.1473 194.975 98.6726 194.576 99.2313 192.086 102.178 189.652 105.173 187.204 108.152 186.308 109.293 184.874 110.205 183.374 109.839 181.267 109.439 180.028 107.12 180.46 105.095 181.152 99.989 181.283 94.8301 181.907 89.7157" fill="#2CB2A4" transform="matrix(1 0 0 1.00019 689 472.021)"/><path d="M203.94 6.18883C204.368 6.17132 204.8 6.16336 205.231 6.15222 207.203 13.0016 208.757 19.9704 210.57 26.8596 210.969 29.0977 212.232 31.315 211.588 33.6215 211.03 35.6303 210.489 37.6423 209.982 39.6639 209.666 39.5668 209.026 39.3662 208.703 39.2691 208.219 36.9626 208.104 34.5288 207.221 32.3369 205.651 31.5379 203.72 32.0727 202.017 32.0552 201.286 34.3744 200.904 36.7875 200.545 39.1863 200.097 39.3503 199.653 39.5174 199.212 39.6878 198.728 37.5659 198.105 35.4823 197.551 33.3843 197.11 32.0186 197.66 30.6417 197.99 29.3253 200.032 21.6275 201.813 13.8612 203.94 6.18883" fill="#5A5A5A" transform="matrix(1 0 0 1.00019 689 472.021)"/><path d="M171.067 20.007C171.772 20.2012 172.464 20.4511 173.093 20.8411 179.853 24.9447 186.645 29.0085 193.418 33.0914 194.246 33.5069 194.612 34.3871 195.056 35.1448 195.978 36.8433 196.935 38.5226 197.848 40.2305 197.562 40.3897 197 40.7065 196.72 40.8657 194.824 39.6273 193.092 38.1199 191.078 37.0756 189.307 37.4354 188.087 39.285 187.163 40.7431 188.006 42.9971 189.694 44.8021 190.921 46.8523 190.688 47.2344 190.456 47.618 190.232 48.0048 188.382 46.8969 186.507 45.8336 184.649 44.7416 184.03 44.4153 183.568 43.8853 183.247 43.2788 179.041 35.8898 174.82 28.5103 170.611 21.1276 170.724 20.8459 170.954 20.2872 171.067 20.007" fill="#5A5A5A" transform="matrix(1 0 0 1.00019 689 472.021)"/><path d="M236.579 20.5562C237.24 20.1407 238.19 19.7826 238.593 20.7313 238.394 21.489 238.006 22.1782 237.624 22.8547 233.572 29.8267 229.669 36.8894 225.582 43.8359 223.654 45.6171 221.107 46.604 218.899 48.0048 218.704 47.6052 218.511 47.2073 218.325 46.8078 219.547 44.7894 221.18 42.9732 222.048 40.7638 221.233 39.2357 219.913 37.7935 218.349 37.0231 216.205 37.9368 214.493 39.6114 212.529 40.8418 212.13 40.6508 211.732 40.4582 211.34 40.2703 212.435 38.2376 213.511 36.1922 214.689 34.2073 215.068 33.4989 215.794 33.0994 216.454 32.6839 223.178 28.6663 229.873 24.5993 236.579 20.5562" fill="#5A5A5A" transform="matrix(1 0 0 1.00019 689 472.021)"/><path d="M180.382 47.9729C181.337 47.7358 182.335 47.2312 183.32 47.6259 185.459 48.2627 187.627 48.8039 189.751 49.4963 189.641 49.7908 189.417 50.3813 189.307 50.6742 186.995 51.2456 184.608 51.5051 182.346 52.2676 182.395 54.0408 181.735 56.1388 182.706 57.7035 184.804 58.5232 187.151 58.5965 189.327 59.2284 189.425 59.534 189.625 60.1405 189.722 60.4461 187.335 61.1306 184.95 61.8723 182.534 62.4517 173.992 60.2264 165.432 57.9964 156.948 55.5482 157.147 55.0102 157.057 54.1172 157.812 54.044 165.322 51.9747 172.861 50.0056 180.382 47.9729" fill="#5A5A5A" transform="matrix(1 0 0 1.00019 689 472.021)"/><path d="M219.437 49.5297C221.512 48.78 223.662 48.2913 225.77 47.6339 226.865 47.2025 227.977 47.7644 229.041 48.0255 236.715 50.0868 244.379 52.1625 252.064 54.1745 252.061 54.6345 252.074 55.1041 252.024 55.5689 251.34 55.9318 250.569 56.0894 249.832 56.2979 242.2 58.3195 234.578 60.3888 226.951 62.4135 224.412 62.0315 221.943 61.1099 219.465 60.3968 219.566 60.1087 219.77 59.534 219.869 59.2443 221.882 58.7381 223.928 58.4039 225.957 57.9693 226.621 57.9231 226.877 57.2466 226.955 56.6768 227.159 55.1487 226.984 53.5967 226.71 52.0877 224.44 51.607 222.159 51.1995 219.905 50.6662 219.788 50.3813 219.555 49.8146 219.437 49.5297" fill="#5A5A5A" transform="matrix(1 0 0 1.00019 689 472.021)"/><path d="M184.587 65.2103C186.475 64.0897 188.377 62.9882 190.276 61.8883 190.472 62.2926 190.671 62.7001 190.875 63.1076 189.73 64.9126 188.403 66.6079 187.403 68.5021 186.838 69.2964 187.664 69.9904 188.124 70.5809 188.834 71.3514 189.539 72.1695 190.443 72.7235 191.018 73.0211 191.569 72.5643 192.053 72.2953 193.635 71.2447 195.153 70.0955 196.72 69.0162 197.008 69.1754 197.587 69.4922 197.877 69.6561 196.642 71.9053 195.403 74.1545 194.139 76.3877 186.817 80.7349 179.556 85.1855 172.245 89.5533 171.581 90.0993 170.899 89.5215 170.484 88.9994 174.425 82.0847 178.386 75.1812 182.317 68.2617 182.97 67.1825 183.411 65.8454 184.587 65.2103" fill="#5A5A5A" transform="matrix(1 0 0 1.00019 689 472.021)"/><path d="M218.952 61.8803C221.123 63.176 223.32 64.4319 225.485 65.7388 229.518 72.9638 233.671 80.1236 237.77 87.3169 238.128 87.9807 238.434 88.6731 238.736 89.3735 238.426 89.4721 237.807 89.6711 237.501 89.773 235.92 89.0806 234.531 88.0332 233.034 87.1895 227.957 84.1222 222.88 81.0564 217.787 78.0129 216.653 77.2871 215.248 76.7745 214.587 75.5186 213.472 73.6037 212.448 71.6315 211.343 69.7087 211.596 69.5336 212.103 69.1834 212.359 69.0083 214.29 70.1846 216.006 71.7047 218.019 72.7569 218.215 72.7521 218.605 72.7362 218.801 72.7314 219.921 71.8846 220.896 70.85 221.771 69.758 222.285 69.1372 221.789 68.3684 221.454 67.8049 220.428 66.2036 219.359 64.6277 218.291 63.0534 218.508 62.6635 218.728 62.2719 218.952 61.8803" fill="#5A5A5A" transform="matrix(1 0 0 1.00019 689 472.021)"/><path d="M199.225 70.2101C199.661 70.3597 200.097 70.5109 200.537 70.6621 200.871 73.0339 201.315 75.3897 201.918 77.7073 203.655 77.9318 205.554 78.2692 207.224 77.6102 208.055 75.3897 208.258 72.9893 208.671 70.6621 209 70.5475 209.661 70.3231 209.99 70.2101 210.468 72.0836 210.928 73.9635 211.479 75.8211 212.001 77.3858 211.756 79.0396 211.625 80.6457 209.963 94.6518 208.402 108.669 206.788 122.683 206.043 126.782 206.348 131.089 204.975 135.054 204.596 134.712 203.883 134.594 203.822 134.004 203.292 131.627 203.174 129.19 202.913 126.774 201.458 114.667 200.171 102.544 198.703 90.4384 198.418 86.2122 197.559 82.0433 197.371 77.8092 197.718 75.2257 198.682 72.7601 199.225 70.2101" fill="#5A5A5A" transform="matrix(1 0 0 1.00019 689 472.021)"/><path d="M149.226 107.248C149.96 107.243 150.647 107.536 151.332 107.773 166.976 113.363 182.644 118.872 198.284 124.475 198.708 127.902 199.294 131.309 199.82 134.725 184.754 127.594 170.061 119.721 155.244 112.088 153.113 110.894 150.814 109.993 148.777 108.637 148.764 108.136 148.842 107.606 149.226 107.248" fill="#5A5A5A" transform="matrix(1 0 0 1.00019 689 472.021)"/><path d="M258.646 107.499C259.171 107.349 259.908 106.966 260.263 107.622 261.112 108.567 259.657 109.1 259.012 109.489 242.517 117.932 226.198 126.729 209.465 134.699 209.815 131.285 210.546 127.923 210.912 124.509 226.796 118.767 242.746 113.196 258.646 107.499" fill="#5A5A5A" transform="matrix(1 0 0 1.00019 689 472.021)"/><path d="M31.1749 188.099C31.5824 188.102 32.3926 188.107 32.8001 188.11 32.7922 189.961 32.8001 191.811 32.8049 193.665 34.4094 192.996 36.24 192.479 37.9511 193.049 39.4633 193.608 39.8167 195.392 39.9552 196.806 40.0984 199.349 39.9838 201.896 40.0204 204.443 39.4633 204.451 38.9078 204.464 38.3507 204.48 38.1835 201.387 38.6849 198.203 37.8938 195.18 36.5774 193.718 34.4142 194.593 32.7954 194.98 32.8001 198.138 32.7922 201.296 32.8001 204.454 32.2542 204.454 31.7114 204.459 31.1654 204.464 31.1829 199.007 31.1622 193.554 31.1749 188.099" fill="#5A5A5A" transform="matrix(1 0 0 1.00019 689 472.021)"/><path d="M79.5076 188.118C80.0695 188.11 80.6362 188.107 81.1981 188.099 81.2188 193.55 81.1949 199.002 81.214 204.459 80.6442 204.454 80.0775 204.454 79.5108 204.459 79.5029 199.01 79.5108 193.566 79.5076 188.118" fill="#5A5A5A" transform="matrix(1 0 0 1.00019 689 472.021)"/><path d="M217.876 188.118C218.275 188.115 219.07 188.107 219.465 188.102 219.493 193.554 219.474 199.007 219.477 204.464 218.936 204.454 218.401 204.446 217.868 204.446 217.884 199.007 217.871 193.563 217.876 188.118" fill="#5A5A5A" transform="matrix(1 0 0 1.00019 689 472.021)"/><path d="M271.466 188.477C272.023 188.473 272.59 188.469 273.162 188.473 273.152 189.136 273.157 189.81 273.162 190.481 272.598 190.481 272.036 190.486 271.482 190.494 271.469 189.818 271.466 189.146 271.466 188.477" fill="#5A5A5A" transform="matrix(1 0 0 1.00019 689 472.021)"/><path d="M383.139 188.469C383.69 188.465 384.244 188.469 384.806 188.473 384.802 189.136 384.802 189.805 384.81 190.478 384.248 190.481 383.694 190.486 383.144 190.497 383.136 189.818 383.136 189.141 383.139 188.469" fill="#5A5A5A" transform="matrix(1 0 0 1.00019 689 472.021)"/><path d="M0.028652 188.619C3.7168 188.611 7.40017 188.616 11.0851 188.619L11.0851 190.238C9.53156 190.319 7.9748 190.322 6.42282 190.314 6.43555 195.029 6.42282 199.749 6.43078 204.464 5.845 204.459 5.26082 204.454 4.67505 204.454 4.66709 199.744 4.67823 195.034 4.67027 190.319 3.13421 190.314 1.59814 190.311 0.0620794 190.322 0.0493452 189.752 0.0413864 189.186 0.028652 188.619" fill="#5A5A5A" transform="matrix(1 0 0 1.00019 689 472.021)"/><path d="M126.699 188.624C127.261 188.616 127.828 188.611 128.399 188.611 129.625 193.355 130.769 198.122 131.944 202.878 132.27 202.886 132.918 202.899 133.243 202.907 134.373 198.13 135.541 193.367 136.789 188.624 137.364 188.619 137.939 188.619 138.516 188.624 137.208 193.905 135.818 199.169 134.507 204.454 133.214 204.459 131.928 204.459 130.64 204.454 129.397 199.161 127.909 193.924 126.699 188.624" fill="#5A5A5A" transform="matrix(1 0 0 1.00019 689 472.021)"/><path d="M225.932 188.619C229.644 188.611 233.356 188.611 237.07 188.619 237.052 189.183 237.041 189.748 237.033 190.314 235.476 190.314 233.923 190.319 232.366 190.319 232.383 195.026 232.371 199.736 232.375 204.446 231.817 204.451 231.266 204.464 230.717 204.48 230.688 199.757 230.696 195.037 230.712 190.314 229.131 190.319 227.546 190.314 225.965 190.322 225.948 189.752 225.94 189.186 225.932 188.619" fill="#5A5A5A" transform="matrix(1 0 0 1.00019 689 472.021)"/><path d="M305.503 189.382C307.778 187.833 310.732 188.481 313.258 188.937 313.225 189.439 313.198 189.943 313.177 190.453 310.996 190.189 308.507 189.507 306.519 190.784 304.941 192.49 305.145 195.037 305.093 197.202 305.161 199.028 305.14 201.333 306.799 202.515 308.768 203.587 311.09 203.004 313.18 202.703 313.201 203.09 313.242 203.864 313.263 204.25 310.834 204.634 308.087 205.209 305.83 203.95 303.389 202.466 303.52 199.292 303.381 196.798 303.515 194.271 303.291 191.129 305.503 189.382" fill="#5A5A5A" transform="matrix(1 0 0 1.00019 689 472.021)"/><path d="M172.155 189.569C172.689 189.561 173.227 189.557 173.769 189.557L173.769 193.028C174.935 193.028 176.103 193.028 177.273 193.033 177.262 193.542 177.257 194.052 177.252 194.569 176.092 194.564 174.93 194.564 173.769 194.556 173.798 196.79 173.715 199.028 173.798 201.259 173.798 201.969 173.984 202.926 174.799 203.127 175.627 203.278 176.471 203.119 177.306 203.085 177.351 203.432 177.44 204.125 177.485 204.472 176.205 204.618 174.841 204.932 173.594 204.483 172.461 204.056 172.346 202.698 172.216 201.68 172.066 199.308 172.192 196.933 172.147 194.556 171.609 194.561 171.075 194.564 170.541 194.577 170.541 194.19 170.546 193.415 170.546 193.033 171.079 193.028 171.617 193.025 172.159 193.028 172.159 191.871 172.155 190.722 172.155 189.569" fill="#5A5A5A" transform="matrix(1 0 0 1.00019 689 472.021)"/><path d="M376.175 189.549C376.582 189.561 377.397 189.581 377.805 189.593 377.794 190.738 377.794 191.887 377.797 193.036 378.967 193.033 380.137 193.028 381.31 193.02 381.305 193.535 381.305 194.047 381.31 194.564L377.802 194.564C377.888 197.14 377.59 199.752 377.961 202.307 378.575 203.704 380.304 203.045 381.472 203.082 381.448 203.396 381.399 204.023 381.375 204.336 380.398 204.903 379.155 204.691 378.074 204.634 376.929 204.467 376.347 203.318 376.285 202.267 376.054 199.712 376.224 197.14 376.18 194.577 375.629 194.564 375.083 194.556 374.545 194.553 374.542 194.047 374.545 193.542 374.553 193.041 375.088 193.028 375.629 193.025 376.175 193.02 376.175 191.863 376.172 190.701 376.175 189.549" fill="#5A5A5A" transform="matrix(1 0 0 1.00019 689 472.021)"/><path d="M13.0685 194.794C11.9972 195.526 12.0466 196.97 11.8555 198.119 13.8023 198.135 15.7506 198.127 17.7021 198.127 17.5923 197.148 17.5637 196.129 17.1164 195.233 16.1661 194.052 14.283 194.015 13.0685 194.794M12.731 193.261C14.4677 192.462 16.806 192.629 18.1669 194.073 19.3894 195.564 19.3576 197.617 19.3114 199.443 16.8346 199.451 14.353 199.426 11.8747 199.467 12.0386 200.62 11.9081 202.189 13.1704 202.776 14.9595 203.587 17.0097 203.09 18.896 203.004 18.9007 203.346 18.9087 204.031 18.9167 204.378 16.8107 204.581 14.5695 205.057 12.5225 204.304 10.4898 203.359 10.1921 200.815 10.189 198.835 10.2654 196.798 10.6442 194.211 12.731 193.261" fill="#5A5A5A" transform="matrix(1 0 0 1.00019 689 472.021)"/><path d="M44.8578 193.632C46.4273 192.89 48.3502 192.417 49.9929 193.203 51.2807 193.859 51.451 195.453 51.6133 196.737 51.7853 199.308 51.6595 201.888 51.6913 204.467 51.1294 204.446 50.5675 204.435 50.0041 204.417 49.9277 201.622 50.16 198.811 49.8703 196.027 49.8258 195.082 48.9646 194.402 48.0605 194.389 46.8635 194.357 45.6155 194.577 44.5841 195.209 44.471 198.276 44.5681 201.353 44.557 204.427 43.9696 204.438 43.3902 204.451 42.8076 204.467 42.8124 200.612 42.7838 196.758 42.8283 192.903 43.5542 193.004 44.2991 193.102 44.8578 193.632" fill="#5A5A5A" transform="matrix(1 0 0 1.00019 689 472.021)"/><path d="M60.7867 193.2C62.5027 192.462 64.4383 192.915 66.2274 193.106 66.2067 193.469 66.1733 194.198 66.1542 194.561 64.4096 194.361 62.5632 194.149 60.9491 195.008 60.1262 197.312 59.8381 200.034 60.9698 202.278 62.3435 203.668 64.4669 203.041 66.1908 202.972 66.202 203.448 66.2195 203.926 66.2354 204.406 64.295 204.618 62.1111 205.115 60.3267 204.056 58.5742 202.784 58.5662 200.376 58.5583 198.424 58.6426 196.541 58.8957 194.162 60.7867 193.2" fill="#5A5A5A" transform="matrix(1 0 0 1.00019 689 472.021)"/><path d="M70.2085 199.446C69.0592 200.306 69.1929 202.612 70.5746 203.2 71.9722 203.485 73.3506 202.931 74.6782 202.565 74.6782 201.325 74.6782 200.083 74.6861 198.843 73.1994 199.028 71.622 198.869 70.2085 199.446M68.4925 193.281C70.2117 192.976 71.969 192.686 73.7199 192.874 74.9106 193.025 76.0519 193.901 76.1617 195.16 76.4992 197.576 76.1124 200.029 76.3527 202.453 76.9162 203.187 77.7678 203.741 77.6452 204.814 76.6552 204.639 75.6969 204.341 74.8135 203.868 73.1915 204.443 71.431 204.992 69.7102 204.537 67.348 203.673 67.1109 199.964 68.9573 198.464 70.7544 197.613 72.8206 197.767 74.7434 197.471 74.5922 196.439 74.8294 194.919 73.6101 194.48 71.9149 194.157 70.183 194.525 68.4846 194.63 68.4846 194.178 68.4878 193.73 68.4925 193.281" fill="#5A5A5A" transform="matrix(1 0 0 1.00019 689 472.021)"/><path d="M90.2617 199.516C90.0484 200.713 89.5804 202.482 90.9366 203.171 92.3469 203.493 93.7524 202.955 95.1054 202.601 95.1261 201.345 95.1309 200.094 95.1341 198.843 93.4962 198.937 91.8455 199.064 90.2617 199.516M89.0137 193.35C90.6596 192.837 92.4201 192.743 94.1329 192.882 95.3792 192.976 96.5364 193.961 96.6702 195.233 96.8994 197.764 96.6829 200.306 96.8055 202.845 97.2209 203.057 97.6411 203.268 98.0646 203.489 98.0232 203.929 97.9786 204.378 97.942 204.825 97.0172 204.597 96.121 204.297 95.2726 203.872 93.7333 204.43 92.0858 204.908 90.4368 204.618 87.7467 203.954 87.3837 199.54 89.7762 198.294 91.508 197.675 93.3815 197.722 95.1882 197.471 95.037 196.439 95.2535 194.862 94.0103 194.467 92.2896 194.182 90.5466 194.561 88.8227 194.622 88.872 194.303 88.9691 193.668 89.0137 193.35" fill="#5A5A5A" transform="matrix(1 0 0 1.00019 689 472.021)"/><path d="M101.785 193.705C103.281 192.887 105.115 192.482 106.76 193.086 108.064 193.676 108.55 195.204 108.599 196.533 108.709 199.174 108.615 201.815 108.655 204.459 108.121 204.451 107.588 204.451 107.053 204.451 106.858 201.329 107.599 198.017 106.442 195.042 105.107 193.71 103.02 194.663 101.487 195.11 101.495 198.224 101.476 201.333 101.492 204.446 100.958 204.451 100.428 204.459 99.8983 204.472 99.9015 200.612 99.8824 196.761 99.9142 192.906 100.603 193.004 101.325 193.106 101.785 193.705" fill="#5A5A5A" transform="matrix(1 0 0 1.00019 689 472.021)"/><path d="M141.374 195.564C140.823 197.385 140.969 199.357 141.149 201.228 141.504 203.97 146.442 203.978 146.789 201.223 147.188 199.153 147.037 196.998 146.397 194.989 144.853 194.178 142.421 193.835 141.374 195.564M142.338 192.976C144.132 192.629 146.353 192.691 147.62 194.211 148.876 196.003 148.858 198.367 148.659 200.465 148.541 202.165 147.672 204.08 145.864 204.5 143.965 204.874 141.523 204.924 140.207 203.241 139.07 201.46 139.099 199.227 139.271 197.194 139.438 195.376 140.334 193.313 142.338 192.976" fill="#5A5A5A" transform="matrix(1 0 0 1.00019 689 472.021)"/><path d="M162.008 199.504C161.744 200.666 161.247 202.222 162.444 203.041 163.867 203.66 165.427 202.907 166.842 202.584 166.858 201.333 166.858 200.086 166.861 198.835 165.228 198.95 163.585 199.044 162.008 199.504M160.644 193.273C163.027 193 166.197 191.944 167.987 194.112 168.964 196.627 168.243 199.415 168.483 202.046 168.353 202.87 169.266 203.147 169.763 203.599 169.731 204.007 169.698 204.417 169.669 204.83 168.744 204.593 167.843 204.292 166.992 203.868 165.187 204.5 163.023 205.221 161.226 204.223 159.51 202.858 159.437 199.687 161.284 198.396 163.047 197.641 165.032 197.748 166.903 197.479 166.793 196.432 166.988 194.875 165.737 194.467 164.05 194.174 162.334 194.525 160.647 194.647 160.644 194.186 160.644 193.726 160.644 193.273" fill="#5A5A5A" transform="matrix(1 0 0 1.00019 689 472.021)"/><path d="M186.115 194.692C184.918 195.481 184.877 197.132 184.812 198.428 184.845 199.822 184.754 201.434 185.728 202.565 186.959 203.602 188.691 203.241 190.072 202.743 190.647 201.667 190.989 200.473 190.94 199.247 190.913 197.748 191.075 195.901 189.845 194.802 188.732 194.17 187.269 194.174 186.115 194.692M186.365 192.947C188.337 192.556 190.903 192.833 191.943 194.817 192.844 197.202 192.839 199.924 192.118 202.356 191.556 204.117 189.534 204.801 187.844 204.704 186.136 204.822 184.205 204.047 183.61 202.327 182.999 200.277 183.043 198.065 183.43 195.979 183.642 194.47 184.885 193.237 186.365 192.947" fill="#5A5A5A" transform="matrix(1 0 0 1.00019 689 472.021)"/><path d="M196.935 193.767C198.475 192.931 200.374 192.443 202.062 193.119 203.431 193.757 203.841 195.397 203.914 196.782 204.029 199.337 203.935 201.896 203.969 204.454 203.402 204.446 202.84 204.446 202.281 204.446 202.248 201.899 202.399 199.344 202.2 196.802 202.086 195.967 202.004 194.878 201.072 194.556 199.62 194.047 198.12 194.72 196.731 195.115 196.736 198.232 196.728 201.353 196.736 204.472 196.193 204.454 195.655 204.438 195.117 204.427 195.153 200.624 195.044 196.814 195.192 193.012L196.548 193.012C196.645 193.2 196.837 193.579 196.935 193.767" fill="#5A5A5A" transform="matrix(1 0 0 1.00019 689 472.021)"/><path d="M208.435 199.512C207.485 200.486 207.571 202.369 208.736 203.139 210.134 203.555 211.573 202.943 212.926 202.609 212.949 201.353 212.949 200.099 212.965 198.848 211.463 199.064 209.82 198.806 208.435 199.512M206.832 193.363C208.564 192.837 210.423 192.694 212.22 192.911 213.524 193.102 214.509 194.287 214.608 195.58 214.799 198.054 214.509 200.543 214.828 203.009 215.105 203.13 215.659 203.375 215.936 203.497 215.872 203.95 215.807 204.402 215.741 204.858 214.844 204.597 213.968 204.287 213.153 203.84 211.58 204.427 209.869 204.963 208.185 204.573 205.562 203.819 205.317 199.472 207.676 198.273 209.4 197.683 211.254 197.715 213.043 197.466 212.949 196.468 212.811 195.478 212.477 194.533 210.546 194.222 208.593 194.475 206.662 194.626 206.706 194.308 206.788 193.676 206.832 193.363" fill="#5A5A5A" transform="matrix(1 0 0 1.00019 689 472.021)"/><path d="M238.459 194.47C239.755 193.804 241.087 193.2 242.469 192.727 242.488 193.318 242.509 193.913 242.529 194.512 241.173 194.927 239.737 195.266 238.577 196.118 238.413 198.88 238.552 201.656 238.524 204.427 237.945 204.443 237.37 204.454 236.801 204.475 236.809 200.658 236.783 196.842 236.812 193.028 237.378 193.028 237.953 193.033 238.532 193.041 238.512 193.399 238.475 194.112 238.459 194.47" fill="#5A5A5A" transform="matrix(1 0 0 1.00019 689 472.021)"/><path d="M245.549 199.548C245.442 200.726 244.86 202.503 246.257 203.139 247.66 203.566 249.102 202.918 250.46 202.589 250.48 201.337 250.483 200.091 250.496 198.843 248.83 198.934 247.15 199.047 245.549 199.548M244.334 193.342C245.834 192.89 247.419 192.785 248.984 192.829 250.288 192.837 251.739 193.628 251.943 195.026 252.322 197.503 251.902 200.026 252.158 202.511 252.403 203.033 252.998 203.244 253.417 203.615 253.357 204.023 253.299 204.435 253.247 204.85 252.333 204.573 251.437 204.263 250.573 203.872 248.768 204.508 246.609 205.221 244.815 204.203 243.141 202.816 243.055 199.65 244.906 198.388 246.69 197.633 248.678 197.751 250.561 197.453 250.491 196.455 250.308 195.47 249.938 194.541 248.002 194.219 246.046 194.475 244.11 194.63 244.167 194.308 244.277 193.665 244.334 193.342" fill="#5A5A5A" transform="matrix(1 0 0 1.00019 689 472.021)"/><path d="M261.669 193.705C263.246 192.923 265.187 192.414 266.869 193.172 268.23 193.827 268.426 195.478 268.552 196.81 268.711 199.357 268.593 201.907 268.63 204.459 268.084 204.454 267.541 204.451 267.003 204.454 266.974 202.038 267.06 199.626 266.984 197.213 266.93 196.186 266.726 194.83 265.577 194.488 264.176 194.125 262.786 194.711 261.457 195.086 261.462 198.208 261.457 201.333 261.465 204.454 260.9 204.459 260.341 204.464 259.783 204.472 259.779 200.666 259.791 196.86 259.775 193.054 260.149 193.044 260.9 193.025 261.269 193.012 261.371 193.188 261.572 193.53 261.669 193.705" fill="#5A5A5A" transform="matrix(1 0 0 1.00019 689 472.021)"/><path d="M277.981 193.705C279.554 192.918 281.49 192.417 283.169 193.167 284.522 193.823 284.754 195.462 284.872 196.802 285.035 199.349 284.917 201.907 284.95 204.459 284.399 204.454 283.853 204.454 283.307 204.454 283.132 201.423 283.728 198.286 282.9 195.332 281.743 193.574 279.355 194.658 277.762 195.082 277.762 198.208 277.762 201.333 277.77 204.459 277.208 204.454 276.649 204.459 276.09 204.464 276.119 200.661 276.095 196.855 276.098 193.057 276.461 193.044 277.187 193.02 277.55 193.012 277.655 193.183 277.875 193.53 277.981 193.705" fill="#5A5A5A" transform="matrix(1 0 0 1.00019 689 472.021)"/><g clip-path="url(#clip1)"><path d="M289.6 207.907C291.107 208.575 292.896 208.497 294.44 207.967 295.614 207.353 295.193 205.848 295.203 204.777 293.56 204.389 291.86 204.211 290.178 204.316 288.801 204.908 288.487 206.92 289.6 207.907M289.326 197.98C289.859 199.512 291.873 199.287 293.129 198.97 294.574 198.192 293.996 196.296 293.984 194.977 292.933 194.423 291.718 193.934 290.536 194.378 288.997 194.732 288.898 196.753 289.326 197.98M287.757 194.883C288.365 193.326 290.19 192.691 291.747 192.837 293.563 193.017 295.389 193.146 297.22 193.008 297.22 193.386 297.215 194.146 297.215 194.525 296.567 194.499 295.927 194.475 295.287 194.451 296.018 196.089 296.131 198.159 294.942 199.614 293.707 200.721 291.906 200.481 290.373 200.559 290.3 201.24 289.611 202.144 290.418 202.612 292.256 203.122 294.375 202.429 296.058 203.518 297.92 205.185 297.162 208.978 294.592 209.495 292.435 210.103 289.775 210.216 287.957 208.722 286.84 207.152 287.239 204.817 288.793 203.676 288.479 202.539 288.479 201.35 289.025 200.282 287.427 198.986 287.101 196.745 287.757 194.883" fill="#5A5A5A" transform="matrix(1 0 0 1.00019 689 472.021)"/></g><path d="M317.986 194.606C315.92 195.857 316.67 198.856 316.689 200.885 316.693 203.856 321.795 204.109 322.367 201.353 322.643 199.577 322.683 197.719 322.268 195.967 321.828 194.138 319.423 194.055 317.986 194.606M317.994 192.96C319.705 192.646 321.743 192.702 323.046 194.023 324.261 195.453 324.321 197.442 324.297 199.231 324.285 200.76 324.081 202.45 322.981 203.607 321.633 204.924 319.522 204.806 317.806 204.532 315.928 204.158 314.941 202.213 314.847 200.449 314.726 198.493 314.615 196.369 315.625 194.606 316.103 193.721 317.036 193.175 317.994 192.96" fill="#5A5A5A" transform="matrix(1 0 0 1.00019 689 472.021)"/><path d="M328.438 194.541C329.697 193.794 331.037 193.203 332.419 192.723 332.434 193.318 332.455 193.921 332.479 194.525 331.107 194.891 329.783 195.397 328.506 196.011 328.466 198.827 328.49 201.643 328.495 204.459 327.892 204.443 327.296 204.422 326.701 204.406 326.73 200.612 326.718 196.818 326.718 193.028 327.301 193.025 327.892 193.025 328.49 193.028 328.479 193.404 328.45 194.162 328.438 194.541" fill="#5A5A5A" transform="matrix(1 0 0 1.00019 689 472.021)"/><path d="M335.911 195.16C335.919 197.777 335.898 200.397 335.924 203.012 337.463 203.139 339.325 203.657 340.573 202.434 341.676 201.102 341.64 199.235 341.543 197.605 341.399 196.505 341.143 195.144 340.046 194.606 338.669 194.007 337.23 194.765 335.911 195.16M336.185 193.689C337.781 192.845 339.9 192.328 341.501 193.436 343.176 194.658 343.144 196.952 343.201 198.814 343.123 200.564 343.099 202.67 341.566 203.835 339.957 205.075 337.781 204.621 335.903 204.585 335.916 206.227 335.911 207.87 335.924 209.516 335.508 209.524 334.68 209.545 334.265 209.553 334.249 204.015 334.268 198.477 334.257 192.942 334.953 193.02 335.723 193.049 336.185 193.689" fill="#5A5A5A" transform="matrix(1 0 0 1.00019 689 472.021)"/><path d="M347.496 195.086C346.929 197.315 346.668 199.731 347.386 201.957 348.196 203.408 350.267 203.521 351.649 202.894 352.882 202.324 352.863 200.783 352.976 199.629 353.002 198.151 353.05 196.562 352.386 195.209 351.114 193.851 348.951 194.24 347.496 195.086M348.168 193.025C350.035 192.605 352.451 192.642 353.707 194.332 354.917 196.11 354.799 198.396 354.676 200.449 354.595 202.238 353.564 204.226 351.644 204.545 349.758 204.874 347.349 204.866 346.143 203.106 345.038 201.345 345.166 199.149 345.296 197.165 345.427 195.413 346.315 193.472 348.168 193.025" fill="#5A5A5A" transform="matrix(1 0 0 1.00019 689 472.021)"/><path d="M357.195 193.017C357.761 193.025 358.331 193.033 358.91 193.044 358.893 193.538 358.882 194.031 358.874 194.533 360.144 193.794 361.489 193.2 362.879 192.72 362.9 193.31 362.928 193.905 362.957 194.504 361.604 194.883 360.291 195.376 359.012 195.943 358.856 198.778 358.947 201.622 358.93 204.464 358.339 204.454 357.761 204.446 357.182 204.443 357.198 200.632 357.187 196.826 357.195 193.017" fill="#5A5A5A" transform="matrix(1 0 0 1.00019 689 472.021)"/><path d="M390.471 194.548C389.298 194.888 389.076 196.244 388.906 197.27 388.752 198.916 388.702 200.69 389.455 202.21 390.382 203.448 392.304 203.493 393.603 202.866 394.993 202.071 394.937 200.237 394.974 198.848 394.928 197.495 395.014 195.8 393.877 194.846 392.895 194.17 391.563 194.206 390.471 194.548M390.112 193.017C392.056 192.571 394.639 192.686 395.805 194.572 396.852 196.753 396.779 199.324 396.335 201.651 396.106 203.053 395.026 204.271 393.616 204.545 391.714 204.874 389.301 204.879 388.062 203.13 386.892 201.395 387.211 199.146 387.25 197.169 387.243 195.379 388.269 193.452 390.112 193.017" fill="#5A5A5A" transform="matrix(1 0 0 1.00019 689 472.021)"/><g clip-path="url(#clip2)"><path d="M401.037 193.665C402.63 192.915 404.542 192.417 406.228 193.18 407.531 193.901 407.842 195.523 407.952 196.884 408.049 199.397 407.967 201.917 407.991 204.435 407.421 204.443 406.856 204.454 406.301 204.472 406.131 201.387 406.708 198.187 405.841 195.188 404.574 193.644 402.348 194.671 400.776 195.094 400.776 198.216 400.784 201.333 400.768 204.454 400.222 204.451 399.676 204.451 399.143 204.454 399.17 200.608 399.133 196.758 399.162 192.911 399.83 193.02 400.585 193.062 401.037 193.665" fill="#5A5A5A" transform="matrix(1 0 0 1.00019 689 472.021)"/></g><path d="M23.31 193.261C25.0577 192.446 27.0459 192.915 28.8796 193.094 28.843 193.579 28.8111 194.063 28.7777 194.556 26.9329 194.463 24.031 193.718 23.232 196.019 22.8324 197.926 22.7099 200.066 23.4118 201.917 24.5484 203.751 27.03 203.069 28.8064 202.951 28.8478 203.427 28.8876 203.908 28.9337 204.394 26.7482 204.639 23.9244 205.315 22.2785 203.399 21.2025 201.7 21.134 199.553 21.2645 197.605 21.4969 196.027 21.7532 194.092 23.31 193.261" fill="#5A5A5A" transform="matrix(1 0 0 1.00019 689 472.021)"/><path d="M54.4945 193.044C55.0739 193.033 55.6517 193.02 56.2359 193.012 56.2438 196.831 56.2263 200.648 56.239 204.467 55.6565 204.454 55.0739 204.446 54.4913 204.438 54.4945 200.64 54.4865 196.842 54.4945 193.044" fill="#5A5A5A" transform="matrix(1 0 0 1.00019 689 472.021)"/><path d="M179.119 193.036C179.535 193.025 180.366 193.004 180.781 192.996 180.81 196.81 180.781 200.629 180.799 204.443 180.235 204.451 179.678 204.454 179.119 204.467 179.119 200.658 179.127 196.847 179.119 193.036" fill="#5A5A5A" transform="matrix(1 0 0 1.00019 689 472.021)"/><path d="M255.17 204.467C255.178 200.64 255.157 196.818 255.186 192.996 255.598 193.004 256.421 193.02 256.836 193.028 256.844 196.834 256.825 200.645 256.849 204.451 256.287 204.454 255.728 204.459 255.17 204.467" fill="#5A5A5A" transform="matrix(1 0 0 1.00019 689 472.021)"/><path d="M271.469 204.435C271.474 200.624 271.457 196.81 271.482 193 271.898 193.008 272.737 193.025 273.157 193.033 273.162 196.847 273.165 200.666 273.152 204.48 272.59 204.464 272.028 204.446 271.469 204.435" fill="#5A5A5A" transform="matrix(1 0 0 1.00019 689 472.021)"/><path d="M238.353 31.2529C243.671 31.0492 248.932 30.0957 254.25 29.8999 256.75 29.6564 258.703 32.6346 257.717 34.8679 257.317 35.8786 256.457 36.5838 255.676 37.2921 251.999 40.4423 248.352 43.6242 244.726 46.8316 240.447 45.7158 236.213 44.436 231.958 43.2247 234.037 39.207 236.234 35.2467 238.353 31.2529" fill="#4F8297" transform="matrix(1 0 0 1.00019 689 472.021)"/><path d="M151.023 34.6116C150.717 32.7285 152.175 30.8454 153.993 30.4586 155.778 30.3361 157.554 30.699 159.335 30.8009 162.921 31.2163 166.548 31.2036 170.126 31.7337 170.834 31.7878 171.047 32.5853 171.393 33.0867 173.263 36.6124 175.251 40.0761 177.122 43.6051 173.381 44.6923 169.648 45.8081 165.916 46.9287 165.215 47.0959 164.351 47.4111 163.786 46.7871 160.313 43.9012 156.948 40.8911 153.476 37.9973 152.421 37.1011 151.165 36.0935 151.023 34.6116" fill="#23B3BB" transform="matrix(1 0 0 1.00019 689 472.021)"/><path d="M216.16 83.1401C219.963 85.3399 223.764 87.5493 227.632 89.6393 228.165 94.924 228.654 100.226 229.115 105.524 229.429 107.292 228.364 109.146 226.65 109.712 225.158 110.34 223.474 109.517 222.533 108.327 219.694 104.868 216.878 101.379 213.952 97.9882 214.563 93.025 215.39 88.0857 216.16 83.1401" fill="#19726A" transform="matrix(1 0 0 1.00019 689 472.021)"/><path d="M371.473 156.55C372.149 155.095 375.014 154.776 375.284 156.631 374.469 156.842 373.209 156.325 372.773 157.283 372.34 157.869 372.859 158.514 373.017 159.092 373.897 158.835 374.782 158.571 375.67 158.305 375.767 158.694 375.874 159.084 375.989 159.48 374.378 159.838 372.761 160.149 371.139 160.416L371.016 159.548C371.237 159.496 371.681 159.389 371.904 159.334 371.441 158.498 370.955 157.479 371.473 156.55" fill="#333333" transform="matrix(1 0 0 1.00019 689 472.021)"/><path d="M253.576 158.375C254.2 158.379 254.827 158.383 255.459 158.396 255.447 159.149 255.443 159.907 255.443 160.666 254.815 160.666 254.196 160.669 253.576 160.677 253.573 159.907 253.573 159.141 253.576 158.375" fill="#333333" transform="matrix(1 0 0 1.00019 689 472.021)"/><path d="M108.488 182.096C109.119 182.091 109.751 182.088 110.386 182.091 110.394 182.854 110.404 183.619 110.412 184.39 109.764 184.385 109.124 184.385 108.48 184.385 108.48 183.619 108.48 182.857 108.488 182.096" fill="#333333" transform="matrix(1 0 0 1.00019 689 472.021)"/><path d="M57.7067 164.773C57.4249 167.382 57.4122 170.01 57.6621 172.617 59.5483 172.642 61.4314 172.633 63.3177 172.633 63.1903 170.388 63.7124 167.983 62.7351 165.877 61.5651 164.292 59.4099 164.655 57.7067 164.773M70.807 157.907C71.5408 157.898 72.2698 157.89 73.0036 157.89 73.0164 163.456 73.0116 169.023 73.0068 174.594 70.4886 174.37 67.6935 175.242 65.4156 173.844 65.4363 174.035 65.4809 174.414 65.5016 174.605 59.7728 174.597 54.0424 174.602 48.3136 174.605 48.3056 173.941 48.3009 173.281 48.2897 172.625 50.7172 172.638 53.1414 172.638 55.5705 172.63 55.077 169.524 55.233 166.345 55.8729 163.278 58.4771 162.539 61.6017 162.038 63.9289 163.77 65.9616 165.682 65.3424 168.701 65.4889 171.196 65.3949 171.977 66.2465 172.463 66.9071 172.58 68.2028 172.706 69.5033 172.617 70.8038 172.63 70.8149 167.719 70.8038 162.813 70.807 157.907" fill="#343434" transform="matrix(1 0 0 1.00019 689 472.021)"/><path d="M77.0706 157.898C77.7837 157.895 78.5 157.895 79.2179 157.898 79.21 163.469 79.2179 169.039 79.2132 174.61 78.5 174.605 77.7917 174.605 77.0818 174.61 77.0627 169.039 77.0786 163.469 77.0706 157.898" fill="#343434" transform="matrix(1 0 0 1.00019 689 472.021)"/><path d="M133.289 158.383C133.919 158.379 134.551 158.375 135.188 158.375 135.183 159.141 135.178 159.911 135.175 160.682 134.539 160.674 133.903 160.669 133.268 160.669 133.271 159.903 133.276 159.141 133.289 158.383" fill="#343434" transform="matrix(1 0 0 1.00019 689 472.021)"/><path d="M144.43 158.375C145.089 158.379 145.754 158.388 146.421 158.396 146.413 159.149 146.413 159.907 146.413 160.669 145.754 160.666 145.094 160.666 144.438 160.674 144.43 159.903 144.43 159.141 144.43 158.375" fill="#343434" transform="matrix(1 0 0 1.00019 689 472.021)"/><path d="M147.559 158.371C148.19 158.375 148.822 158.379 149.458 158.379 149.466 159.141 149.469 159.903 149.477 160.669 148.839 160.669 148.202 160.674 147.57 160.685 147.562 159.911 147.559 159.141 147.559 158.371" fill="#343434" transform="matrix(1 0 0 1.00019 689 472.021)"/><path d="M154.238 157.898C154.942 157.895 155.652 157.895 156.365 157.898 156.368 163.464 156.373 169.035 156.365 174.602 154.702 174.615 153.04 174.597 151.381 174.61 151.389 173.946 151.397 173.286 151.41 172.63 152.347 172.633 153.293 172.633 154.234 172.633 154.234 167.724 154.226 162.808 154.238 157.898" fill="#343434" transform="matrix(1 0 0 1.00019 689 472.021)"/><path d="M160.435 157.89C161.166 157.89 161.895 157.895 162.632 157.898 162.637 163.464 162.624 169.031 162.632 174.594 161.898 174.602 161.169 174.605 160.44 174.615 160.435 169.039 160.435 163.464 160.435 157.89" fill="#343434" transform="matrix(1 0 0 1.00019 689 472.021)"/><path d="M229.115 172.622C229.103 167.711 229.106 162.8 229.111 157.89 229.824 157.89 230.542 157.895 231.258 157.898 231.258 162.808 231.263 167.719 231.258 172.63 232.183 172.633 233.104 172.63 234.037 172.633 234.025 173.29 234.021 173.949 234.021 174.61 231.467 174.605 228.912 174.605 226.355 174.61 226.373 173.949 226.389 173.29 226.405 172.633 227.306 172.633 228.21 172.63 229.115 172.622" fill="#343434" transform="matrix(1 0 0 1.00019 689 472.021)"/><path d="M236.812 157.898C237.533 157.895 238.255 157.89 238.984 157.895 238.988 163.461 238.988 169.031 238.984 174.597 237.358 174.605 235.728 174.602 234.103 174.605 234.103 173.946 234.107 173.281 234.11 172.625 235.007 172.63 235.908 172.633 236.809 172.633 236.809 167.724 236.801 162.808 236.812 157.898" fill="#343434" transform="matrix(1 0 0 1.00019 689 472.021)"/><path d="M250.533 158.371C251.173 158.375 251.821 158.379 252.468 158.383 252.456 159.146 252.453 159.911 252.448 160.682 251.787 160.674 251.136 160.669 250.488 160.666 250.496 159.899 250.512 159.133 250.533 158.371" fill="#343434" transform="matrix(1 0 0 1.00019 689 472.021)"/><path d="M285.23 165.397C285.275 167.304 286.257 169.051 287.675 170.287 288.096 170.629 288.544 171.162 289.164 171.012 291.079 169.769 292.416 167.706 292.701 165.429 290.316 164.451 287.618 164.402 285.23 165.397M277.24 174.61C277.244 169.039 277.236 163.469 277.244 157.898 277.966 157.895 278.695 157.895 279.424 157.895 279.436 162.805 279.432 167.719 279.424 172.63 281.865 172.577 284.355 172.87 286.743 172.225 285.483 170.971 284.256 169.623 283.543 167.972 283.059 166.786 283.083 165.483 283.054 164.227 285.353 163.074 287.973 162.202 290.564 162.748 292.035 163.049 293.453 163.584 294.791 164.263 295.028 167.434 293.291 170.234 291.016 172.272 292.656 172.642 294.334 172.679 296.005 172.638 295.984 173.293 295.968 173.949 295.956 174.61 293.563 174.691 291.11 174.597 288.887 173.62 285.214 175.237 281.119 174.398 277.24 174.61" fill="#343434" transform="matrix(1 0 0 1.00019 689 472.021)"/><path d="M298.768 172.638C298.759 167.724 298.756 162.808 298.768 157.895 299.493 157.89 300.219 157.89 300.948 157.895 300.952 163.461 300.952 169.031 300.952 174.602 299.306 174.605 297.664 174.605 296.021 174.605 296.029 173.946 296.046 173.286 296.066 172.63 296.963 172.63 297.863 172.633 298.768 172.638" fill="#343434" transform="matrix(1 0 0 1.00019 689 472.021)"/><path d="M304.954 174.605C304.954 169.035 304.957 163.464 304.954 157.895 305.667 157.895 306.383 157.895 307.105 157.898 307.097 163.469 307.117 169.039 307.093 174.61 306.376 174.605 305.662 174.605 304.954 174.605" fill="#343434" transform="matrix(1 0 0 1.00019 689 472.021)"/><path d="M386.493 164.757C386.09 167.369 386.069 170.021 386.464 172.638 388.334 172.63 390.205 172.638 392.08 172.633 391.991 170.465 392.362 168.216 391.641 166.126 390.625 164.284 388.245 164.642 386.493 164.757M399.611 157.898C400.332 157.895 401.058 157.898 401.787 157.903 401.771 163.464 401.802 169.028 401.771 174.594 399.264 174.357 396.456 175.27 394.203 173.852 394.227 174.04 394.269 174.419 394.293 174.61 389.802 174.597 385.312 174.61 380.821 174.602 380.813 173.941 380.809 173.286 380.809 172.63 381.937 172.63 383.07 172.638 384.207 172.642 383.967 169.529 383.909 166.366 384.63 163.307 387.247 162.516 390.434 162.035 392.756 163.819 394.838 165.992 394.094 169.271 394.3 171.993 395.902 172.985 397.829 172.56 399.614 172.625 399.598 167.714 399.606 162.805 399.611 157.898" fill="#343434" transform="matrix(1 0 0 1.00019 689 472.021)"/><g clip-path="url(#clip3)"><path d="M405.747 157.907C406.489 157.898 407.238 157.895 407.991 157.898 407.999 163.464 407.98 169.035 407.999 174.605 407.246 174.602 406.497 174.597 405.755 174.589 405.747 169.031 405.755 163.469 405.747 157.907" fill="#343434" transform="matrix(1 0 0 1.00019 689 472.021)"/></g><path d="M35.7019 168.965C34.3569 169.671 34.6944 171.366 34.5973 172.617 36.0394 172.642 37.4863 172.646 38.9333 172.622 38.8521 171.558 39.0797 170.331 38.2965 169.467 37.7267 168.649 36.5488 168.66 35.7019 168.965M33.0325 162.544C35.963 161.677 39.2548 161.04 42.1725 162.304 43.8678 162.96 45.0823 164.504 45.6728 166.186 46.308 168.273 46.1695 170.482 46.1695 172.633 46.8539 172.63 47.5352 172.63 48.2244 172.633 48.2324 173.286 48.2436 173.946 48.2563 174.605 38.0403 174.594 27.8242 174.618 17.613 174.602 17.4172 176.342 17.1243 178.322 15.6249 179.458 13.5874 180.991 10.91 180.331 8.5542 180.474 5.99463 180.592 3.02437 180.503 1.19065 178.44-0.842049 176.175 0.289703 172.865 0.538021 170.169 1.21453 170.295 1.89581 170.425 2.57231 170.559 2.42587 172.549 1.71275 174.74 2.6137 176.635 3.74227 178.534 6.16177 178.628 8.12602 178.534 9.93905 178.444 11.8189 178.763 13.5779 178.22 14.9484 177.625 15.2858 176.031 15.3957 174.696 14.1779 174.586 12.9841 174.349 11.8094 174.015 12.0864 173.411 12.3729 172.813 12.6498 172.214 16.2234 173.095 19.9641 172.421 23.6076 172.638 23.6076 169.386 23.6108 166.13 23.5949 162.878 24.316 162.878 25.0418 162.874 25.7629 162.874 25.7502 166.126 25.7581 169.382 25.7549 172.633 27.9675 172.633 30.1753 172.63 32.3879 172.638 32.442 171.159 32.364 169.48 33.4321 168.31 34.7962 166.513 37.6535 166.167 39.3646 167.662 40.9007 168.803 41.141 170.849 41.0933 172.63 42.0579 172.633 43.0193 172.633 43.9824 172.638 43.8964 170.013 44.5315 166.672 42.1518 164.83 39.519 162.85 36.0728 163.673 33.1185 164.279 33.0691 163.701 33.0453 163.122 33.0325 162.544" fill="#343434" transform="matrix(1 0 0 1.00019 689 472.021)"/><path d="M84.9674 165.604C84.0299 167.609 84.2782 169.994 85.0247 172.026 86.4637 172.744 88.0841 172.666 89.6457 172.638 89.6122 169.919 89.695 167.205 89.5883 164.491 88.0316 164.488 85.9368 164.01 84.9674 165.604M82.4206 166.146C82.5384 164.435 83.8102 162.861 85.5261 162.547 87.613 162.189 89.7427 162.511 91.8057 162.89 91.785 166.713 91.8789 170.535 91.7563 174.354 91.5653 176.191 91.4746 178.327 90.0324 179.68 88.2274 181.033 85.8684 180.343 83.8468 180.004 83.8548 179.374 83.8595 178.742 83.8627 178.115 85.5007 178.225 87.3439 178.941 88.8673 178.045 89.5724 177.042 89.5358 175.759 89.6616 174.597 87.5015 174.438 84.5567 175.263 83.1178 173.155 81.9685 171.036 82.1484 168.464 82.4206 166.146" fill="#343434" transform="matrix(1 0 0 1.00019 689 472.021)"/><path d="M206.527 162.56C208.736 162.218 211.34 162.087 213.007 163.872 215.292 166.175 215.057 169.634 215.016 172.622 216.907 172.642 218.798 172.633 220.692 172.633 220.697 169.382 220.7 166.126 220.692 162.878 221.405 162.874 222.126 162.878 222.847 162.886 222.844 166.134 222.839 169.386 222.847 172.638 224.001 172.633 225.154 172.633 226.308 172.625 226.295 173.286 226.282 173.946 226.274 174.61 219.339 174.615 212.408 174.597 205.471 174.615 205.471 173.949 205.476 173.29 205.484 172.63 207.953 172.638 210.426 172.638 212.9 172.625 212.816 170.148 213.333 167.076 211.16 165.29 209.966 164.093 208.174 164.459 206.654 164.37 206.609 163.762 206.563 163.159 206.527 162.56" fill="#343434" transform="matrix(1 0 0 1.00019 689 472.021)"/><path d="M266.193 164.736C265.765 167.343 265.772 170.01 266.127 172.625 268.014 172.646 269.897 172.63 271.783 172.633 271.66 170.428 272.167 168.066 271.237 165.987 270.158 164.284 267.904 164.671 266.193 164.736M249.608 165.718C249.107 167.662 248.731 169.968 249.917 171.742 251.507 173.037 253.748 172.523 255.647 172.638 255.634 170.002 255.65 167.369 255.634 164.736 253.602 164.723 251.27 164.219 249.608 165.718M247.443 165.23C247.876 163.681 249.473 162.899 250.961 162.707 253.234 162.434 255.528 162.719 257.798 162.931 257.815 166.167 257.806 169.402 257.802 172.638 259.848 172.633 261.898 172.625 263.947 172.646 263.646 169.524 263.585 166.334 264.367 163.278 266.514 162.683 268.862 162.205 271.017 163.033 272.305 163.417 273.34 164.529 273.614 165.849 274.233 168.725 273.875 171.687 273.972 174.602 266.853 174.597 259.733 174.615 252.615 174.602 250.789 174.586 248.535 174.349 247.636 172.494 246.714 170.209 246.748 167.573 247.443 165.23" fill="#343434" transform="matrix(1 0 0 1.00019 689 472.021)"/><path d="M318.018 165.629C316.873 167.565 317.122 170.096 318.169 172.022 319.966 172.748 321.913 172.674 323.812 172.63 323.796 169.997 323.817 167.369 323.801 164.741 321.889 164.809 319.53 164.101 318.018 165.629M315.643 165.156C316.127 163.537 317.879 162.837 319.42 162.667 321.583 162.466 323.756 162.735 325.915 162.902 325.956 166.15 325.935 169.394 325.927 172.638 328.006 172.63 330.088 172.654 332.17 172.609 332.162 169.761 332.162 166.909 332.17 164.06 332.879 164.06 333.592 164.064 334.31 164.072 334.297 166.936 334.297 169.806 334.305 172.67 335.394 172.666 336.506 172.633 337.528 172.197 338.625 169.618 338.042 166.766 338.173 164.052 338.886 164.056 339.599 164.064 340.32 164.072 340.284 166.753 340.487 169.451 340.056 172.116 341.29 172.67 342.639 172.69 343.967 172.63 344.019 169.398 343.943 166.17 343.556 162.96 344 162.939 344.889 162.899 345.333 162.878 346.176 166.065 346.156 169.365 346.098 172.638 347.985 172.633 349.872 172.633 351.759 172.633 351.762 169.777 351.759 166.917 351.762 164.06 352.48 164.06 353.206 164.064 353.93 164.068 353.943 166.933 353.935 169.793 353.935 172.654 355.202 172.625 357.069 172.915 357.495 171.309 358.169 168.965 357.671 166.468 357.834 164.06L359.974 164.06C359.929 166.742 360.162 169.446 359.708 172.104 360.923 172.67 362.264 172.687 363.579 172.633 363.6 169.406 363.608 166.178 363.218 162.972 363.8 162.939 364.391 162.907 364.986 162.878 366.053 166.705 365.626 170.694 365.719 174.61 363.396 174.479 360.902 175.046 358.783 173.827 358.059 174.202 357.312 174.605 356.481 174.594 352.566 174.642 348.645 174.573 344.729 174.615 342.851 174.581 340.833 174.866 339.158 173.816 338.361 174.272 337.488 174.659 336.551 174.605 331.253 174.605 325.959 174.61 320.667 174.602 318.93 174.553 316.754 174.365 315.883 172.604 314.844 170.282 314.901 167.56 315.643 165.156" fill="#343434" transform="matrix(1 0 0 1.00019 689 472.021)"/><path d="M371.143 165.363C369.892 167.385 370.128 170.002 371.115 172.084 372.52 172.724 374.077 172.666 375.589 172.638 375.592 169.916 375.626 167.189 375.564 164.472 374.09 164.516 372.21 164.039 371.143 165.363M370.666 162.853C372.94 161.965 375.467 162.524 377.802 162.886 377.81 166.138 377.805 169.386 377.802 172.633L380.756 172.633C380.756 173.29 380.756 173.946 380.767 174.61 379.782 174.602 378.805 174.602 377.826 174.594 377.572 176.35 377.426 178.327 376.073 179.638 374.297 181.033 371.917 180.356 369.9 180.014 369.892 179.382 369.892 178.755 369.892 178.126 371.444 178.204 373.116 178.881 374.607 178.188 375.756 177.384 375.47 175.82 375.6 174.615 373.654 174.479 371.433 175.005 369.717 173.852 368.241 172.283 368.087 169.924 368.173 167.878 368.302 166.008 368.694 163.644 370.666 162.853" fill="#343434" transform="matrix(1 0 0 1.00019 689 472.021)"/><path d="M133.467 165.612C132.592 167.858 132.616 170.373 133.496 172.614 135.048 172.642 136.601 172.633 138.153 172.633 138.153 170.049 138.161 167.466 138.15 164.883 136.552 164.752 134.854 164.668 133.467 165.612M122.713 162.886C123.423 162.882 124.131 162.878 124.845 162.882 124.849 166.134 124.853 169.386 124.845 172.638 126.947 172.63 129.05 172.633 131.153 172.642 130.62 170.381 130.411 167.959 131.1 165.71 131.419 164.598 132.253 163.603 133.386 163.281 135.656 162.667 138.036 162.955 140.345 163.151 140.345 166.314 140.35 169.472 140.345 172.633 141.019 172.63 141.69 172.63 142.367 172.633 142.359 173.29 142.351 173.946 142.351 174.605 133.765 174.594 125.184 174.634 116.601 174.586 116.443 176.073 116.405 177.727 115.305 178.884 113.915 180.563 111.553 180.539 109.564 180.527 107.082 180.445 104.454 180.848 102.127 179.782 100.334 179.032 98.9973 177.189 99.0467 175.221 99.0594 173.521 99.4303 171.855 99.6866 170.18 100.355 170.307 101.027 170.438 101.699 170.567 101.471 172.225 101.084 173.902 101.291 175.579 101.695 177.458 103.634 178.596 105.477 178.51 107.766 178.473 110.094 178.717 112.363 178.322 113.96 177.891 114.34 176.122 114.433 174.691 113.21 174.573 112.005 174.341 110.831 173.986 111.154 173.408 111.478 172.837 111.81 172.272 115.386 173.024 119.092 172.466 122.721 172.617 122.713 169.373 122.718 166.13 122.713 162.886" fill="#343434" transform="matrix(1 0 0 1.00019 689 472.021)"/><path d="M145.815 162.874C146.54 162.874 147.27 162.878 147.999 162.878 147.999 166.13 148.007 169.382 147.995 172.63 149.103 172.633 150.216 172.633 151.329 172.63 151.321 173.29 151.311 173.949 151.311 174.61 148.341 174.597 145.375 174.618 142.408 174.605 142.411 173.946 142.416 173.286 142.421 172.63 143.55 172.63 144.681 172.633 145.815 172.633 145.81 169.382 145.815 166.126 145.815 162.874" fill="#343434" transform="matrix(1 0 0 1.00019 689 472.021)"/><path d="M183.724 162.882C184.457 162.878 185.187 162.878 185.924 162.878 185.924 166.13 185.911 169.382 185.929 172.638 187.032 172.633 188.134 172.633 189.241 172.633 189.226 173.29 189.213 173.946 189.205 174.605 184.95 174.602 180.697 174.623 176.447 174.594 174.702 174.487 172.518 174.479 171.455 172.833 170.346 170.718 171.197 168.294 171.479 166.076 171.463 165.115 172.733 165.677 173.336 165.494 173.214 167.316 172.579 169.153 172.962 170.974 173.321 172.275 174.812 172.471 175.949 172.58 178.537 172.706 181.133 172.601 183.724 172.633 183.716 169.382 183.72 166.134 183.724 162.882" fill="#343434" transform="matrix(1 0 0 1.00019 689 472.021)"/><path d="M192.737 162.874 194.894 162.874C194.894 166.782 194.889 170.694 194.894 174.602 193.024 174.615 191.156 174.61 189.286 174.605 189.294 173.946 189.302 173.286 189.315 172.63 190.451 172.633 191.593 172.633 192.734 172.63 192.729 169.378 192.721 166.126 192.737 162.874" fill="#343434" transform="matrix(1 0 0 1.00019 689 472.021)"/><path d="M200.928 162.91C201.629 162.907 202.331 162.907 203.039 162.91 203.026 167.149 203.068 171.391 203.026 175.633 202.958 177.319 202.448 179.349 200.798 180.152 199.8 180.727 198.614 180.449 197.535 180.421 197.522 179.813 197.514 179.215 197.509 178.615 198.512 178.424 199.873 178.612 200.414 177.52 200.981 176.3 200.892 174.892 200.941 173.578 200.924 170.021 200.941 166.465 200.928 162.91" fill="#343434" transform="matrix(1 0 0 1.00019 689 472.021)"/><path d="M194.413 176.514C195.036 176.517 195.667 176.525 196.299 176.541 196.295 177.267 196.295 177.996 196.299 178.729 195.667 178.726 195.036 178.726 194.408 178.726 194.404 177.988 194.404 177.251 194.413 176.514" fill="#343434" transform="matrix(1 0 0 1.00019 689 472.021)"/><path d="M6.30821 182.099C6.93696 182.091 7.56412 182.088 8.19606 182.088L8.19606 184.39C7.56412 184.385 6.929 184.385 6.29707 184.385 6.30025 183.624 6.30503 182.862 6.30821 182.099" fill="#343434" transform="matrix(1 0 0 1.00019 689 472.021)"/><path d="M9.35646 182.083C9.98521 182.088 10.6124 182.088 11.2395 182.099L11.2395 184.382C10.6044 184.385 9.96452 184.39 9.32781 184.395 9.33577 183.624 9.3485 182.854 9.35646 182.083" fill="#343434" transform="matrix(1 0 0 1.00019 689 472.021)"/><path d="M122.742 158.351C123.431 158.351 124.124 158.351 124.821 158.355 124.816 159.125 124.816 159.891 124.821 160.661 124.124 160.666 123.431 160.666 122.742 160.669 122.739 159.896 122.739 159.12 122.742 158.351" fill="#353535" transform="matrix(1 0 0 1.00019 689 472.021)"/><path d="M222.358 158.375C223.006 158.379 223.654 158.383 224.307 158.388 224.302 159.149 224.299 159.911 224.294 160.677 223.646 160.674 223.003 160.669 222.363 160.669 222.358 159.903 222.358 159.138 222.358 158.375" fill="#353535" transform="matrix(1 0 0 1.00019 689 472.021)"/><path d="M318.702 158.371C319.334 158.379 319.977 158.388 320.622 158.399 320.609 159.154 320.609 159.911 320.609 160.669 319.969 160.669 319.334 160.669 318.699 160.677 318.694 159.907 318.694 159.138 318.702 158.371" fill="#353535" transform="matrix(1 0 0 1.00019 689 472.021)"/><path d="M23.6554 158.342C24.3367 158.351 25.0211 158.351 25.7056 158.359 25.7008 159.125 25.6976 159.896 25.6976 160.669 25.0084 160.666 24.3239 160.669 23.6395 160.674 23.6442 159.896 23.6474 159.117 23.6554 158.342" fill="#353535" transform="matrix(1 0 0 1.00019 689 472.021)"/><path d="M136.312 160.669C136.304 159.907 136.299 159.146 136.299 158.383 136.92 158.383 137.542 158.383 138.169 158.391 138.174 159.146 138.179 159.903 138.182 160.666 137.555 160.666 136.931 160.666 136.312 160.669" fill="#353535" transform="matrix(1 0 0 1.00019 689 472.021)"/><path d="M219.323 160.685C219.315 159.916 219.31 159.149 219.31 158.379 219.971 158.383 220.639 158.391 221.308 158.396 221.303 159.146 221.308 159.896 221.316 160.648 220.647 160.658 219.983 160.669 219.323 160.685" fill="#353535" transform="matrix(1 0 0 1.00019 689 472.021)"/><path d="M321.735 160.669C321.735 159.907 321.735 159.149 321.743 158.391 322.367 158.388 322.994 158.388 323.626 158.388 323.626 159.146 323.626 159.907 323.629 160.669" fill="#353535" transform="matrix(1 0 0 1.00019 689 472.021)"/><path d="M177.832 176.525C178.524 176.517 179.216 176.517 179.918 176.522 179.914 177.267 179.914 178.016 179.918 178.771 179.216 178.766 178.521 178.763 177.827 178.766 177.827 178.016 177.827 177.267 177.832 176.525" fill="#353535" transform="matrix(1 0 0 1.00019 689 472.021)"/><path d="M105.363 182.107C106.027 182.096 106.69 182.088 107.359 182.091 107.351 182.854 107.348 183.619 107.343 184.39 106.682 184.385 106.023 184.39 105.363 184.395 105.358 183.627 105.358 182.866 105.363 182.107" fill="#353535" transform="matrix(1 0 0 1.00019 689 472.021)"/><path d="M35.7019 168.965C36.5488 168.66 37.7267 168.649 38.2965 169.467 39.0797 170.331 38.8521 171.558 38.9333 172.622 37.4863 172.646 36.0394 172.642 34.5973 172.617 34.6944 171.366 34.3569 169.671 35.7019 168.965" fill="#FEFEFE" transform="matrix(1 0 0 1.00019 689 472.021)"/><path d="M191.279 176.509C191.94 176.514 192.599 176.525 193.264 176.538 193.256 177.263 193.259 177.992 193.264 178.721 192.595 178.721 191.935 178.726 191.271 178.734 191.271 177.988 191.274 177.246 191.279 176.509" fill="#363636" transform="matrix(1 0 0 1.00019 689 472.021)"/><path d="M54.4833 188.481C55.0611 188.473 55.6437 188.465 56.2263 188.465 56.2311 189.136 56.2359 189.818 56.2438 190.497 55.6565 190.486 55.0739 190.481 54.4913 190.478 54.4865 189.81 54.4833 189.146 54.4833 188.481" fill="#5B5B5B" transform="matrix(1 0 0 1.00019 689 472.021)"/><path d="M113.638 195.136C112.747 196.272 112.8 197.842 112.766 199.219 112.873 200.583 112.868 202.413 114.377 203.02 115.733 203.489 117.123 202.78 118.403 202.369 118.395 199.76 118.415 197.153 118.387 194.545 116.822 194.434 114.902 193.896 113.638 195.136M118.403 188.11C118.969 188.107 119.536 188.107 120.106 188.107 120.093 193.554 120.101 199.007 120.101 204.454 119.531 204.451 118.965 204.451 118.403 204.454 118.403 204.284 118.406 203.942 118.406 203.77 116.773 204.577 114.751 205.151 113.027 204.279 111.569 203.427 111.19 201.583 111.055 200.029 110.958 198.033 111.044 195.836 112.233 194.149 113.785 192.401 116.345 192.775 118.415 193.041 118.395 191.395 118.403 189.752 118.403 188.11" fill="#5B5B5B" transform="matrix(1 0 0 1.00019 689 472.021)"/><path d="M179.119 188.477C179.678 188.473 180.235 188.473 180.799 188.477 180.794 189.146 180.786 189.818 180.786 190.494 180.224 190.486 179.665 190.481 179.111 190.481 179.111 189.81 179.115 189.141 179.119 188.477" fill="#5B5B5B" transform="matrix(1 0 0 1.00019 689 472.021)"/><path d="M383.148 204.467C383.152 200.64 383.102 196.814 383.172 192.992 383.58 193.004 384.395 193.036 384.802 193.054 384.802 196.855 384.79 200.658 384.815 204.459 384.252 204.459 383.698 204.459 383.148 204.467" fill="#5B5B5B" transform="matrix(1 0 0 1.00019 689 472.021)"/><path d="M255.174 188.469C255.728 188.465 256.287 188.469 256.849 188.473 256.844 189.146 256.844 189.818 256.849 190.494 256.287 190.489 255.732 190.486 255.178 190.489 255.174 189.813 255.17 189.141 255.174 188.469" fill="#5C5C5C" transform="matrix(1 0 0 1.00019 689 472.021)"/><path d="M153.194 193.081C154.865 192.544 156.663 192.895 158.366 193.102 158.361 193.587 158.358 194.073 158.358 194.564 156.589 194.361 154.722 194.17 153.089 195.026 152.335 197.328 152.013 199.989 153.118 202.234 154.445 203.696 156.642 203.02 158.366 202.963 158.366 203.448 158.369 203.937 158.377 204.427 156.365 204.613 153.993 205.196 152.249 203.852 150.582 202.405 150.83 199.992 150.819 198.009 150.811 196.155 151.279 193.864 153.194 193.081" fill="#595959" transform="matrix(1 0 0 1.00019 689 472.021)"/><path d="M365.719 199.911C365.711 200.804 365.723 201.696 365.755 202.593 367.283 203.798 369.232 203.074 370.89 202.565 370.885 201.321 370.885 200.083 370.895 198.843 369.142 199.036 367.207 198.778 365.719 199.911M364.705 193.371C366.274 192.866 367.957 192.772 369.595 192.85 370.739 192.906 372.027 193.579 372.264 194.797 372.737 197.332 372.267 199.932 372.549 202.487 373.144 203.184 373.897 203.79 373.857 204.822 372.859 204.61 371.885 204.32 370.971 203.876 369.469 204.41 367.879 204.887 366.274 204.631 363.535 204.104 363.148 199.728 365.365 198.354 367.145 197.665 369.098 197.73 370.963 197.466 370.812 196.435 371.008 195.001 369.856 194.499 368.079 194.138 366.257 194.564 364.467 194.63 364.529 194.316 364.647 193.684 364.705 193.371" fill="#595959" transform="matrix(1 0 0 1.00019 689 472.021)"/></g></svg>